<svg width="232" height="244" viewBox="0 0 232 244" fill="none" xmlns="http://www.w3.org/2000/svg">
<path d="M102.017 1.72193C96.4097 2.9954 90.9813 4.95342 85.8544 7.55171C78.2389 11.5884 71.3384 16.8436 65.4278 23.1083C63.8589 24.894 63.5009 25.0831 61.2161 25.4192C50.6136 27.1315 40.5357 31.2106 31.7344 37.3519C25.3977 41.6041 19.8624 46.9379 15.3826 53.108C8.95915 61.6003 4.60784 71.469 2.67387 81.9313C0.832129 92.6326 1.37858 103.607 4.27431 114.074L5.6431 118.633L3.73732 124.326C1.60833 130.548 0.385013 137.043 0.104749 143.611C-0.147951 147.813 0.00998654 149.777 1.15767 157.193C2.30535 164.609 2.70546 166.542 4.07425 170.197C11.0375 188.979 23.8445 202.585 42.4952 211.016C46.6479 212.7 50.9206 214.073 55.2777 215.123C57.9626 215.68 58.2048 215.817 60.5423 218.642C67.0431 226.34 75.1034 232.578 84.1933 236.947C93.2832 241.315 103.197 243.715 113.283 243.989C121.868 243.842 130.384 242.426 138.553 239.787C148.903 235.85 158.237 229.648 165.866 221.636C168.235 219.126 168.508 218.915 170.678 218.6C171.952 218.411 174.942 217.76 177.332 217.193C192.218 213.462 205.471 204.975 215.068 193.026C224.665 181.077 230.079 166.323 230.483 151.017C230.484 143.567 229.496 136.15 227.546 128.958L226.377 125.145L228.188 119.988C231.805 109.6 232.867 98.4968 231.283 87.6141C230.132 78.7001 227.219 70.1027 222.713 62.3201C213.521 46.1543 196.453 33.4023 178.659 29.3372C174.573 28.4129 173.647 28.0347 172.941 27.0578C170.057 23.4859 166.888 20.1523 163.465 17.0894C150.272 5.41938 129.866 -1.38729 113.083 0.240849L107.513 0.745046C105.664 0.96997 103.829 1.29609 102.017 1.72193Z" fill="#FFDD5E"/>
<path d="M123.98 186.001C110.497 186.001 98.2738 183.109 87.3106 177.327C76.4735 171.418 67.9046 163.31 61.6039 153.001C55.4292 142.567 52.3419 130.813 52.3419 117.738C52.3419 104.664 55.4292 92.973 61.6039 82.6645C67.9046 72.2303 76.4735 64.1218 87.3106 58.339C98.2738 52.4305 110.56 49.4762 124.169 49.4762C135.637 49.4762 145.97 51.4876 155.169 55.5104C164.494 59.5333 172.307 65.3161 178.607 72.8589L158.949 90.9616C150.002 80.6531 138.913 75.4988 125.682 75.4988C117.491 75.4988 110.182 77.3217 103.755 80.9674C97.3287 84.4873 92.2881 89.453 88.6337 95.8644C85.1054 102.276 83.3412 109.567 83.3412 117.738C83.3412 125.91 85.1054 133.201 88.6337 139.613C92.2881 146.024 97.3287 151.052 103.755 154.698C110.182 158.218 117.491 159.978 125.682 159.978C138.913 159.978 150.002 154.761 158.949 144.327L178.607 162.43C172.307 170.098 164.494 175.944 155.169 179.967C145.844 183.989 135.448 186.001 123.98 186.001Z" fill="#111111"/>
</svg>
